<svg width="20" height="20" viewBox="0 0 20 20" fill="none" xmlns="http://www.w3.org/2000/svg">
<path d="M15.696 1.04131C16.5625 1.04131 17.264 1.74088 17.264 2.60529V10.2664L17.4148 9.90049L8.51945 18.9145L8.89336 18.7597H2.61333C1.74691 18.7597 1.04533 18.0621 1.04533 17.2017V0.520655L0.522666 1.04131H15.696ZM0 0V0.520655V17.1997C0 18.6371 1.16997 19.801 2.61333 19.801H8.89336H9.11247L9.26726 19.6442L18.1606 10.6302L18.3114 10.4794V10.2664V2.60529C18.3114 1.16796 17.1414 0 15.6981 0H0.522666H0V0ZM16.4499 13.6134L16.1986 13.8647L16.4499 14.116L17.8752 15.5352L18.1264 15.7865L18.3777 15.5352L19.4472 14.4698L19.7005 14.2205L19.4492 13.9692L18.0239 12.548L17.7706 12.2967L17.5193 12.548L16.4499 13.6134ZM17.5193 13.0506L18.9446 14.4698V13.9672L17.8752 15.0327H18.3797L16.9545 13.6114V14.114L18.0239 13.0485H17.5193V13.0506ZM12.5279 17.5193L12.4515 17.5957L12.4314 17.7023L12.0756 19.4773L11.9711 20L12.4957 19.8955L14.2788 19.5397L14.3854 19.5196L14.4618 19.4432L18.3817 15.5372L18.633 15.286L18.3817 15.0347L16.9565 13.6134L16.7052 13.3621L16.4539 13.6134L12.5279 17.5193ZM16.4499 14.116L17.8752 15.5352V15.0327L13.9552 18.9386L14.1381 18.8421L12.355 19.1979L12.7752 19.616L13.131 17.841L13.0325 18.0219L16.9545 14.116H16.4499ZM9.07428 13.3822C9.46829 13.3822 9.78792 13.6999 9.78792 14.0939V14.2828C9.78792 14.6748 9.4703 14.9945 9.07428 14.9945C8.68027 14.9945 8.35863 14.6769 8.35863 14.2828V14.0939C8.35863 13.7019 8.67625 13.3822 9.07428 13.3822ZM5.75535 7.69324C5.75535 7.69324 5.81164 8.18374 6.36245 8.18374C6.91326 8.18374 6.94542 7.69324 6.94542 7.69324C6.90924 6.10112 7.64901 5.34526 9.16474 5.42165C10.1739 5.53422 10.6966 6.10112 10.7307 7.12433C10.6604 7.58066 10.2784 8.16967 9.59694 8.88733C8.69434 9.79596 8.24404 10.6101 8.24404 11.3298V12.0675C8.24404 12.0675 8.31239 12.5078 8.81295 12.5078C9.31149 12.5078 9.38185 12.0675 9.38185 12.0675V11.5549C9.38185 10.9539 9.81405 10.2322 10.6805 9.39592C11.5851 8.56569 12.0354 7.80581 12.0354 7.12433C11.961 5.23269 10.972 4.24766 9.0582 4.17127C6.85496 4.13308 5.75535 5.30707 5.75535 7.69324Z" fill="black"/>
</svg>
