<svg width="20" height="20" viewBox="0 0 20 20" fill="none" xmlns="http://www.w3.org/2000/svg">
<path d="M0 16.1016C0 14.1892 0 12.291 0 10.3786C2.32161 10.3786 4.62587 10.3786 6.94747 10.3786C6.94747 12.2768 6.94747 14.1892 6.94747 16.1016C4.62834 16.1016 2.32408 16.1016 0 16.1016ZM1.38751 14.9607C2.79237 14.9607 4.1774 14.9607 5.56244 14.9607C5.56244 13.8034 5.56244 12.6625 5.56244 11.5359C4.15758 11.5359 2.77255 11.5359 1.38751 11.5359C1.38751 12.6768 1.38751 13.8198 1.38751 14.9607Z" fill="#322316"/>
<path d="M6.95113 3.48401C6.95113 5.39645 6.95113 7.2946 6.95113 9.19275C4.62953 9.19275 2.32527 9.19275 0.00366211 9.19275C0.00366211 7.2946 0.00366211 5.39645 0.00366211 3.48401C2.32527 3.48401 4.62953 3.48401 6.95113 3.48401ZM5.56362 8.06611C5.56362 6.89456 5.56362 5.75363 5.56362 4.61065C4.15877 4.61065 2.79108 4.61065 1.3887 4.61065C1.3887 5.76792 1.3887 6.90885 1.3887 8.06611C2.79355 8.06611 4.16124 8.06611 5.56362 8.06611Z" fill="#322316"/>
<path d="M12.5643 11.5216C12.5643 11.893 12.5643 12.2482 12.5643 12.6482C12.0787 12.6482 11.6278 12.6482 11.1421 12.6482C11.1421 13.0483 11.1421 13.4034 11.1421 13.7892C10.6738 13.7892 10.2427 13.7892 9.77444 13.7892C9.77444 13.4177 9.77444 13.0626 9.77444 12.6625C9.30615 12.6625 8.85769 12.6625 8.3894 12.6625C8.3894 12.2625 8.3894 11.9073 8.3894 11.5216C8.84035 11.5216 9.27147 11.5216 9.7571 11.5216C9.7571 11.1215 9.7571 10.7501 9.7571 10.3643C10.2427 10.3643 10.6738 10.3643 11.1421 10.3643C11.1421 10.7501 11.1421 11.1195 11.1421 11.5216C11.6476 11.5359 12.1159 11.5359 12.5643 11.5216Z" fill="#322316"/>
<path d="M11.1621 14.9464C11.1621 14.5749 11.1621 14.2198 11.1621 13.8198C11.6477 13.8198 12.0987 13.8198 12.567 13.8198C12.567 13.434 12.567 13.0646 12.567 12.6788C13.0352 12.6788 13.4664 12.6788 13.952 12.6788C13.952 12.8707 13.952 13.0789 13.952 13.2871C13.952 13.4054 13.952 13.5238 13.952 13.6422C13.9347 13.7749 14.0065 13.8198 14.1676 13.8198C14.4748 13.8198 14.7622 13.8198 15.067 13.8198C15.1562 13.8198 15.2478 13.8198 15.337 13.8341C15.337 14.2055 15.337 14.5607 15.337 14.9464C14.8861 14.9464 14.4376 14.9464 13.9693 14.9464C13.9693 15.3465 13.9693 15.7179 13.9693 16.0873C13.5011 16.0873 13.0526 16.0873 12.5843 16.0873C12.5843 15.7159 12.5843 15.3465 12.5843 14.9301C12.0789 14.9464 11.6106 14.9464 11.1621 14.9464Z" fill="#322316"/>
<path d="M12.5645 11.5359C12.5645 11.1501 12.5645 10.7807 12.5645 10.3786C13.4812 10.3786 14.3831 10.3786 15.2998 10.3786C15.2998 11.1195 15.2998 11.8767 15.2998 12.6462C14.8687 12.6462 14.4178 12.6462 13.9495 12.6462C13.9495 12.2747 13.9495 11.9053 13.9495 11.5195C13.4837 11.5216 13.0154 11.5216 12.5645 11.5359C12.5645 11.5359 12.5645 11.5216 12.5645 11.5359Z" fill="#322316"/>
<path d="M11.1421 14.9464C11.1421 15.3322 11.1421 15.7016 11.1421 16.1037C10.2229 16.1037 9.32351 16.1037 8.38941 16.1037C8.38941 16.0445 8.37207 15.9853 8.37207 15.9261C8.37207 15.3036 8.37207 14.6811 8.37207 14.0422C8.37207 13.8647 8.44392 13.8198 8.64214 13.8198C9.00141 13.8341 9.34333 13.8198 9.73976 13.8198C9.73976 14.2055 9.73976 14.5607 9.73976 14.9464C10.2254 14.9464 10.6937 14.9464 11.1421 14.9464C11.1421 14.9464 11.162 14.9464 11.1421 14.9464Z" fill="#322316"/>
<path d="M20.0001 1.18584C20.0001 0.444943 19.46 0 18.5606 0C17.3539 0 16.1299 0 14.9258 0C12.676 0 10.4436 0 8.21121 0C7.401 0 6.84352 0.45923 6.82617 1.12665C6.82617 1.4675 6.82617 1.80835 6.82617 2.1492C6.82617 2.31248 6.82617 2.46148 6.82617 2.63904C10.679 2.63904 14.4947 2.63904 18.3277 2.63904C18.3277 7.413 18.3277 12.1584 18.3277 16.9323C14.4947 16.9323 10.6592 16.9323 6.82617 16.9323C6.82617 17.5998 6.82617 18.2672 6.82617 18.9183C6.82617 19.5408 7.401 20 8.15918 20C11.6503 20 15.1438 20 18.6175 20C19.4104 20 19.9852 19.5265 19.9852 18.8734C20.0001 12.9748 20.0001 7.07215 20.0001 1.18584ZM14.294 18.757C13.9892 18.757 13.6993 18.757 13.3946 18.757C13.1071 18.757 12.8371 18.757 12.5497 18.757C12.2796 18.757 12.0814 18.6243 12.0987 18.4305C12.0987 18.2386 12.2796 18.1182 12.567 18.1182C13.1418 18.1182 13.7191 18.1182 14.294 18.1182C14.564 18.1182 14.7251 18.2366 14.7251 18.4305C14.7251 18.6223 14.564 18.757 14.294 18.757Z" fill="#322316"/>
<path d="M4.14028 13.8035C3.72651 13.8035 3.33007 13.8035 2.93364 13.8035C2.87913 13.8035 2.78993 13.73 2.78993 13.6994C2.77259 13.3728 2.78993 13.0462 2.78993 12.7054C3.24088 12.7054 3.68934 12.7054 4.14028 12.7054C4.14028 13.0483 4.14028 13.4177 4.14028 13.8035Z" fill="#322316"/>
<path d="M2.80981 6.89459C2.80981 6.52312 2.80981 6.15369 2.80981 5.78223C3.26076 5.78223 3.69188 5.78223 4.14282 5.78223C4.14282 6.15369 4.14282 6.52312 4.14282 6.89459C3.70922 6.89459 3.2781 6.89459 2.80981 6.89459Z" fill="#322316"/>
<path d="M15.3195 3.48401C15.3195 5.39645 15.3195 7.2946 15.3195 9.19275C12.9979 9.19275 10.6937 9.19275 8.37207 9.19275C8.37207 7.2946 8.37207 5.39645 8.37207 3.48401C10.6937 3.48401 12.9979 3.48401 15.3195 3.48401ZM13.932 8.06611C13.932 6.89456 13.932 5.75363 13.932 4.61065C12.5272 4.61065 11.1595 4.61065 9.75711 4.61065C9.75711 5.76792 9.75711 6.90885 9.75711 8.06611C11.162 8.06611 12.5297 8.06611 13.932 8.06611Z" fill="#322316"/>
<path d="M11.1621 6.89459C11.1621 6.52312 11.1621 6.15369 11.1621 5.78223C11.6131 5.78223 12.0442 5.78223 12.4951 5.78223C12.4951 6.15369 12.4951 6.52312 12.4951 6.89459C12.0615 6.89459 11.6279 6.89459 11.1621 6.89459Z" fill="#322316"/>
</svg>
