<svg width="20" height="20" viewBox="0 0 20 20" fill="none" xmlns="http://www.w3.org/2000/svg">
<path d="M17.3333 0.0542486C16.8923 0.148329 16.585 0.305267 16.0848 0.697712C15.4553 1.18812 15.0442 1.69423 14.3009 2.87116C13.9787 3.38504 13.7014 3.78136 13.6864 3.75381C13.6767 3.72238 13.6269 3.62034 13.5875 3.52238C13.4241 3.15361 12.9434 2.70627 12.4825 2.49851C12.3686 2.44749 12.2743 2.37688 12.2743 2.34545C12.2743 2.23954 12.0266 1.8628 11.8433 1.68627C11.6253 1.47832 11.1794 1.23893 10.877 1.1724C10.6788 1.12934 10.6541 1.10955 10.5698 0.921385C10.436 0.623224 9.99993 0.293634 9.61847 0.20343C9.28649 0.128941 8.81095 0.144657 8.57795 0.238738C8.44418 0.293635 8.40939 0.293634 8.13695 0.219145C7.34413 0.00730983 6.3928 0.348531 6.10541 0.952812C6.02603 1.10587 5.98144 1.14118 5.70411 1.24322C5.11439 1.46301 4.70818 1.88668 4.58421 2.41627L4.52982 2.6477L4.20764 2.75749C3.20192 3.10667 2.6519 4.06789 2.98387 4.89951C3.00372 4.94278 2.94908 5.07992 2.8501 5.23686C2.70139 5.47624 2.68669 5.53502 2.68669 5.85665C2.68669 6.04889 2.70654 6.25297 2.73128 6.30399C2.76608 6.38644 2.73128 6.37073 2.51323 6.21767C2.10703 5.9391 1.67582 5.78604 1.22503 5.76645C0.848462 5.75073 0.848462 5.75073 0.714693 5.87624C0.640463 5.94297 0.580924 6.03318 0.580924 6.07236C0.580924 6.29991 0.813925 6.4646 1.14074 6.4646C1.23482 6.4646 1.38844 6.48807 1.47762 6.5195C1.67582 6.58623 2.11682 6.84521 2.11682 6.89623C2.11682 6.91195 1.998 6.95909 1.85908 6.99439C1.39823 7.11603 0.818564 7.375 0.555923 7.58296C0.105128 7.9399 -0.078386 8.41459 0.0306398 8.93642C0.0703324 9.13642 0.0703324 9.25417 0.0306398 9.3758C-0.0435905 9.60723 0.729384 18.258 0.853102 18.5876C1.10079 19.2349 1.75495 19.7371 2.60705 19.9371C2.84985 19.992 3.58313 20 9.52413 20C15.4651 20 16.1984 19.9922 16.4412 19.9371C17.4075 19.7135 18.1408 19.0427 18.2648 18.2737C18.2944 18.1129 18.4877 15.9904 18.7009 13.558L19.0823 9.13662L18.9833 9.02683C18.904 8.94438 18.6563 8.80316 18.582 8.79928C18.5771 8.79928 18.6712 8.52459 18.7952 8.19112C19.4692 6.30807 19.8803 4.36993 19.9844 2.55749C20.0141 2.06709 20.0043 1.91403 19.93 1.65505C19.5976 0.462205 18.5222 -0.200851 17.3333 0.0542486ZM18.2003 0.760365C18.4333 0.846691 18.7552 1.1371 18.8841 1.37628C19.0921 1.74893 19.1269 1.96076 19.0921 2.57688C18.9782 4.53462 18.4578 6.75909 17.6601 8.71663L17.5016 9.10499L17.2291 9.19927C17.0804 9.25417 16.8376 9.3405 16.6941 9.39152C16.1043 9.61131 15.703 9.58764 15.0589 9.29335C14.172 8.88928 13.3594 8.87744 12.522 9.2658C12.1552 9.43458 11.7539 9.55621 11.7044 9.51682C11.6598 9.48152 12.2941 8.00643 12.6954 7.20215C13.0622 6.46868 15.0687 3.16524 15.6239 2.38056C15.9262 1.94893 16.3621 1.45464 16.6247 1.23505C17.1797 0.776079 17.7694 0.59955 18.2003 0.760365ZM7.88436 0.893834C7.9537 0.913426 8.09752 0.995873 8.21144 1.07424L8.41454 1.21934L8.5978 1.08199C8.69677 1.00363 8.8308 0.92118 8.89008 0.897711C9.05349 0.830976 9.30634 0.84669 9.4896 0.933016C9.7226 1.04669 9.80662 1.23118 9.76719 1.53709L9.73755 1.78423L10.1736 1.80383C10.6592 1.82342 10.8278 1.87444 11.0902 2.07852C11.2835 2.23546 11.4124 2.45505 11.457 2.72198C11.4866 2.92198 11.4967 2.92606 11.7196 2.99259C12.4877 3.22402 12.9088 3.73014 12.8593 4.36176C12.8395 4.6089 12.681 4.9738 12.5967 4.9738C12.5818 4.9738 12.4431 4.90706 12.2846 4.82074C12.131 4.73829 11.8882 4.62462 11.7443 4.56564C11.6057 4.51074 11.4768 4.44788 11.457 4.42829C11.442 4.40482 11.4966 4.28707 11.5809 4.16544C11.9773 3.57687 11.5116 2.81586 10.7634 2.81586C10.5752 2.81586 7.92432 3.26708 7.69621 3.33381C7.23536 3.47891 7.01731 3.82422 7.12634 4.24013C7.21552 4.56176 7.34929 4.73054 7.62172 4.864C7.75549 4.93074 7.86452 5.00523 7.86452 5.0287C7.86452 5.05217 7.74054 5.20523 7.58203 5.36604C7.22531 5.74277 6.97272 6.16236 6.90829 6.49583L6.8539 6.75868L6.43275 6.42134C6.11572 6.17032 5.91752 6.04869 5.65977 5.95053C5.34275 5.82889 5.27831 5.81706 4.84221 5.81706C4.40121 5.81706 4.34682 5.82481 3.98985 5.96216C3.78185 6.04052 3.59834 6.09563 3.58364 6.07991C3.5687 6.06808 3.554 5.97012 3.554 5.86012C3.554 5.62481 3.65813 5.46788 3.94036 5.28727L4.13367 5.16563L3.96021 4.89094C3.81149 4.66339 3.78185 4.57707 3.78185 4.37319C3.78675 3.7534 4.31693 3.34524 5.18398 3.2983C5.40693 3.28647 5.58529 3.263 5.58529 3.25116C5.58529 3.23932 5.55049 3.12953 5.51106 3.01178C5.37729 2.61545 5.43683 2.3526 5.72421 2.10158C5.94716 1.90546 6.22965 1.79954 6.52683 1.79566C6.6508 1.79566 6.77452 1.77995 6.80442 1.76424C6.83406 1.74852 6.86885 1.61913 6.8838 1.47383C6.89875 1.28954 6.93329 1.17567 7.00262 1.10118C7.19567 0.893833 7.58203 0.799549 7.88436 0.893834ZM10.7582 3.58503C10.9662 3.74973 10.8376 3.79299 9.46511 4.03217C8.59316 4.18523 8.15706 4.24401 8.10242 4.22054C7.99829 4.18136 7.9836 4.05177 8.07278 4.00483C8.11736 3.98136 10.4064 3.55748 10.6492 3.52626C10.669 3.52238 10.7185 3.54973 10.7582 3.58503ZM10.6837 4.75421C10.8025 4.93462 10.9464 5.0289 11.4567 5.24849C11.8482 5.41727 12.1057 5.58196 12.2792 5.76645L12.4129 5.91951L12.2544 6.20195C12.1652 6.35889 12.0266 6.61378 11.9521 6.7748C11.8727 6.93174 11.7737 7.07296 11.7291 7.08092C11.3031 7.19868 10.8373 7.38684 10.3963 7.61439C9.74734 7.95173 9.46975 8.05765 9.0388 8.11663C8.74652 8.15581 8.06272 8.13622 8.06272 8.09316C8.06272 8.08132 7.99339 7.82255 7.90911 7.51643C7.67121 6.63766 7.73075 6.38665 8.34521 5.7393C8.66224 5.39788 8.75657 5.23706 8.75657 5.01747V4.87237L9.56408 4.73115C10.0051 4.65666 10.4113 4.58992 10.4659 4.58605C10.535 4.58156 10.5997 4.63258 10.6837 4.75421ZM5.26311 6.57848C5.65462 6.72358 6.07577 7.08072 6.49693 7.6299C6.81911 8.04581 6.93303 8.34398 6.95777 8.8656C6.98741 9.37948 6.96267 9.52478 6.8338 9.52478C6.78921 9.52478 6.48198 9.41886 6.1549 9.28948C5.14403 8.88152 4.60895 8.87764 3.65272 9.25805L3.13233 9.46601H2.63695C2.15136 9.46601 2.13641 9.46213 1.7699 9.30519C1.5668 9.21499 1.29926 9.10111 1.17528 9.05009C0.892794 8.92846 0.878103 8.91662 0.878103 8.68132C0.883 8.18704 1.28946 7.885 2.31503 7.62214C2.86016 7.4848 3.04341 7.39847 3.57359 7.03766C4.31667 6.53521 4.79246 6.40583 5.26311 6.57848ZM11.1049 8.61846C10.9562 8.97152 10.8373 9.2854 10.8373 9.31682C10.8373 9.34825 10.8224 9.36784 10.8025 9.35988C10.7778 9.35213 10.5945 9.28152 10.3912 9.19907C9.79657 8.96764 9.34062 8.92438 8.73131 9.04989C8.35475 9.12825 8.31016 9.11662 8.31016 8.93601C8.31016 8.83785 8.31506 8.83785 8.74626 8.83397C9.49449 8.82622 10.0146 8.66928 10.9116 8.19459C11.1544 8.0652 11.3575 7.96316 11.3624 7.96704C11.3675 7.97132 11.2536 8.2654 11.1049 8.61846ZM5.9817 14.4876C6.15516 14.5582 6.25413 14.7662 6.1848 14.9113C6.07577 15.1349 6.06598 15.1349 4.19295 15.1349H2.47844L2.34467 15.0329C2.13151 14.8602 2.2011 14.5582 2.48333 14.468C2.53798 14.4484 3.32075 14.4327 4.21254 14.4327C5.55539 14.4288 5.86262 14.4407 5.9817 14.4876ZM6.87349 15.9C7.04695 15.9706 7.14593 16.1786 7.07659 16.3237C6.96757 16.5513 6.99721 16.5474 4.64375 16.5474C3.02846 16.5435 2.46864 16.5317 2.4091 16.4964C2.13151 16.3276 2.17121 15.9784 2.48333 15.8804C2.53798 15.8609 3.51895 15.8451 4.65844 15.8451C6.39795 15.8413 6.75467 15.849 6.87349 15.9ZM7.76039 17.3125C8.03798 17.4263 8.04777 17.8029 7.77534 17.9168C7.70601 17.9482 6.84385 17.9598 5.0899 17.9598H2.50318L2.35962 17.8459C2.26064 17.7676 2.21605 17.6929 2.21605 17.6066C2.21605 17.5202 2.26064 17.4457 2.35962 17.3672L2.50318 17.2533H5.0649C7.21526 17.2535 7.64157 17.2615 7.76039 17.3125ZM10.4064 17.3006C10.575 17.3712 10.6342 17.4537 10.6394 17.6184C10.6394 17.7243 10.6046 17.7949 10.5154 17.8617C10.4015 17.9559 10.3667 17.9598 9.77208 17.9598C9.17747 17.9598 9.14267 17.9559 9.02875 17.8617C8.82075 17.7008 8.87024 17.4184 9.12772 17.3006C9.26175 17.2419 10.2677 17.2378 10.4064 17.3006Z" fill="#322316"/>
<path d="M18.0763 2.37278C18.017 2.41197 17.9327 2.50625 17.883 2.58074C17.8335 2.66707 17.7245 2.74543 17.6054 2.79258C17.4368 2.85931 17.3825 2.86319 17.194 2.82401C16.4311 2.65931 15.7223 2.89849 15.3757 3.43216C15.222 3.67543 15.2965 3.88338 15.569 3.97747C15.8069 4.05583 16.0149 3.9893 16.1388 3.79706C16.1932 3.71461 16.2973 3.60869 16.3718 3.56175C16.4958 3.48339 16.5404 3.47931 16.8327 3.50686C17.6353 3.58543 18.0516 3.4991 18.4232 3.18115C18.7799 2.87523 18.8642 2.57707 18.6413 2.40442C18.4975 2.28646 18.2299 2.27462 18.0763 2.37278Z" fill="#322316"/>
<path d="M17.5365 4.64034C17.4571 4.69524 17.3731 4.78156 17.3581 4.83258C17.3184 4.96605 17.0164 5.16217 16.7983 5.1936C16.6893 5.20931 16.5158 5.19748 16.3671 5.16605C15.5694 4.99728 14.7915 5.24054 14.4 5.77421C14.2116 6.03706 14.2067 6.23706 14.385 6.36665C14.5387 6.48032 14.7714 6.49604 14.9351 6.40584C14.9946 6.37441 15.0887 6.26849 15.1482 6.17053C15.3315 5.87237 15.6833 5.75849 16.1393 5.85666C16.4862 5.93115 16.8032 5.93115 17.1055 5.86053C17.9775 5.65258 18.5721 4.7934 17.9875 4.58544C17.804 4.51871 17.695 4.53442 17.5365 4.64034Z" fill="#322316"/>
<path d="M16.4659 7.09642C16.3966 7.13948 16.337 7.20234 16.337 7.23376C16.337 7.26519 16.2576 7.35927 16.1587 7.4456C15.9159 7.66131 15.6929 7.70458 15.2867 7.61825C14.6723 7.49274 14.0431 7.61825 13.6219 7.95559C13.3593 8.16743 13.2057 8.39498 13.2057 8.57947C13.2057 8.77171 13.4583 8.9562 13.6763 8.92089C13.8645 8.88946 13.9985 8.79926 14.0776 8.64232C14.1668 8.47743 14.4194 8.31661 14.6375 8.28539C14.7416 8.26967 14.9248 8.28151 15.0684 8.30886C15.4352 8.38335 15.871 8.37171 16.203 8.26967C16.7035 8.12069 17.1742 7.66947 17.1791 7.33601C17.1796 7.05703 16.7584 6.91581 16.4659 7.09642Z" fill="#322316"/>
</svg>
