<svg width="20" height="20" viewBox="0 0 20 20" fill="none" xmlns="http://www.w3.org/2000/svg">
<path d="M9.30268 10.6272H8.5364V12.2737H9.30268C9.52819 12.2737 9.63985 12.1231 9.63985 11.8244V11.0843C9.63985 10.7804 9.52819 10.6272 9.30268 10.6272ZM5.74932 10.635H4.89983V11.1492H5.74932C5.83251 11.1492 5.87411 11.0635 5.87411 10.8921C5.87192 10.7207 5.83032 10.635 5.74932 10.635ZM20 11.1492L15.4439 4.72147V7.65615H1.83032V15.1045H15.4439V18.0392L20 11.1492ZM6.56158 10.8921V11.1102C6.56158 11.6998 6.35796 11.9932 5.95074 11.9932H4.90202V13.1334H4.21675V9.79094H5.95293C6.36015 9.79094 6.56376 10.0844 6.56376 10.6687L6.56158 10.8921ZM10.3273 11.4634V12.2114C10.3273 12.8243 10.0339 13.1334 9.44937 13.1334H7.85112V9.79094H9.44937C10.0339 9.79354 10.3273 10.1 10.3273 10.7077V11.4634ZM13.8084 10.635H12.2934V11.1466H13.5939V11.9907H12.2934V13.1334H11.6081V9.79094H13.8084V10.635Z" fill="#322316"/>
<path d="M1.06404 16.1148V3.97351C1.06404 2.4802 2.08429 1.26997 3.34319 1.26997H13.1078C13.9245 1.26997 14.6382 1.77899 15.0411 2.54253H16.2912C15.8577 1.0622 14.671 0 13.2764 0H3.19212C1.42967 0 0 1.69588 0 3.78652V16.2135C0 18.3041 1.42967 20 3.19212 20H11.4702V18.7326H3.341C2.08429 18.7378 1.06404 17.6055 1.06404 16.1148Z" fill="#322316"/>
<path d="M15.3826 3.85664H16.4488V3.79171C16.4488 1.69848 15.0191 0.00518799 13.2567 0.00518799H12.3328V1.27256H13.1078C14.3317 1.27256 15.33 2.42046 15.3826 3.85664Z" fill="#322316"/>
</svg>
